<?xml version="1.0" encoding="utf-8"?>
<svg xmlns="http://www.w3.org/2000/svg" width="304.372" height="48" viewBox="0 0 304.372 48">
  <g id="Group_3548" data-name="Group 3548" transform="translate(-118 -17)">
    <g id="RGB" transform="translate(94.186 -7)">
      <path id="Path_1945" data-name="Path 1945" d="M79.114,32.2h26.05v5.65h-19.9V47.3h17.651v5.65H85.263V67.2H79.114Zm46.85,35.6a19.459,19.459,0,0,1-7.451-1.375,16.636,16.636,0,0,1-9.4-9.525,19.187,19.187,0,0,1-1.3-7.1v-.1a18.431,18.431,0,0,1,1.325-6.975,17.572,17.572,0,0,1,9.451-9.675,18,18,0,0,1,7.274-1.45,24.621,24.621,0,0,1,4.175.325,20.011,20.011,0,0,1,3.5.925,16.439,16.439,0,0,1,3.025,1.475,23.428,23.428,0,0,1,2.75,2.025l-3.9,4.65a22.283,22.283,0,0,0-2.05-1.55,14.221,14.221,0,0,0-2.2-1.2,11.5,11.5,0,0,0-2.525-.75,17.01,17.01,0,0,0-3.025-.25,10.4,10.4,0,0,0-4.475.974,11.15,11.15,0,0,0-3.6,2.669,12.758,12.758,0,0,0-2.4,3.942,12.929,12.929,0,0,0-.875,4.74v.1a14.25,14.25,0,0,0,.85,4.99,11.3,11.3,0,0,0,2.425,3.942,11.486,11.486,0,0,0,3.75,2.6,12.1,12.1,0,0,0,4.875.947,14.768,14.768,0,0,0,4.676-.721,13.2,13.2,0,0,0,3.774-1.915V53h-8.95V47.65h14.9v14.7a26.091,26.091,0,0,1-2.875,2.1,21.613,21.613,0,0,1-7.3,2.924A21.973,21.973,0,0,1,125.964,67.8Zm32.749-35.85h5.7l15.4,35.25h-6.5l-3.55-8.451h-16.55l-3.6,8.451h-6.3Zm8.8,21.3-6.05-14-6,14Z" fill="#00317a"/>
      <path id="Path_1946" data-name="Path 1946" d="M199.169,32.491v2.684h3.861v.946h-3.861v3.113h-1.1v-7.7H203.5v.957Zm10.791,4.18h-4.731a1.833,1.833,0,0,0,.677,1.237,2.206,2.206,0,0,0,1.436.468,2.166,2.166,0,0,0,1.683-.7l.583.682a2.565,2.565,0,0,1-.985.7,3.709,3.709,0,0,1-2.953-.138,2.707,2.707,0,0,1-1.106-1.061,3.047,3.047,0,0,1-.39-1.54,3.111,3.111,0,0,1,.378-1.529,2.725,2.725,0,0,1,1.046-1.062,2.989,2.989,0,0,1,1.5-.379,2.932,2.932,0,0,1,1.492.379,2.673,2.673,0,0,1,1.022,1.062,3.23,3.23,0,0,1,.368,1.562A3.165,3.165,0,0,1,209.96,36.671ZM205.829,34.7a1.864,1.864,0,0,0-.6,1.21h3.74a1.874,1.874,0,0,0-.6-1.2,1.97,1.97,0,0,0-2.541-.005Zm1.931-3.575H209.1l-1.847,1.43h-.991Zm9.185-.055v8.162h-1.012V38.31a2.291,2.291,0,0,1-.891.737,2.757,2.757,0,0,1-1.188.253,3.069,3.069,0,0,1-1.518-.374,2.673,2.673,0,0,1-1.05-1.051,3.366,3.366,0,0,1,0-3.107,2.684,2.684,0,0,1,1.05-1.045,3.069,3.069,0,0,1,1.518-.374,2.811,2.811,0,0,1,1.156.236,2.253,2.253,0,0,1,.879.7V31.072Zm-2,7.045a1.813,1.813,0,0,0,.7-.725,2.4,2.4,0,0,0,0-2.145,1.778,1.778,0,0,0-.7-.721,2.119,2.119,0,0,0-2.008,0,1.83,1.83,0,0,0-.7.721,2.358,2.358,0,0,0,0,2.145,1.867,1.867,0,0,0,.7.725,2.075,2.075,0,0,0,2.008,0Zm9.251-1.446h-4.73a1.832,1.832,0,0,0,.676,1.237,2.208,2.208,0,0,0,1.436.468,2.168,2.168,0,0,0,1.684-.7l.583.682a2.568,2.568,0,0,1-.986.7,3.709,3.709,0,0,1-2.953-.138,2.7,2.7,0,0,1-1.105-1.061,3.038,3.038,0,0,1-.391-1.54,3.091,3.091,0,0,1,.38-1.529,2.709,2.709,0,0,1,1.045-1.062,2.984,2.984,0,0,1,1.5-.379,2.931,2.931,0,0,1,1.491.379,2.673,2.673,0,0,1,1.022,1.062,3.219,3.219,0,0,1,.369,1.562A2.934,2.934,0,0,1,224.194,36.671ZM220.063,34.7a1.858,1.858,0,0,0-.6,1.21h3.74a1.88,1.88,0,0,0-.6-1.2,1.97,1.97,0,0,0-2.541-.005Zm1.931-3.575h1.342l-1.848,1.43h-.99Zm5.511,2.486a2.953,2.953,0,0,1,1.308-.264v1.023a2.113,2.113,0,0,0-.242-.011,1.775,1.775,0,0,0-1.347.512,2.019,2.019,0,0,0-.49,1.457v2.9h-1.056V33.4h1.012v.979A1.806,1.806,0,0,1,227.505,33.613Zm6.572.33a2.293,2.293,0,0,1,.643,1.771v3.52h-1v-.77a1.665,1.665,0,0,1-.753.621,2.878,2.878,0,0,1-1.161.215,2.428,2.428,0,0,1-1.567-.473,1.516,1.516,0,0,1-.589-1.243,1.534,1.534,0,0,1,.562-1.238,2.766,2.766,0,0,1,1.781-.467h1.673V35.67a1.346,1.346,0,0,0-.4-1.045,1.668,1.668,0,0,0-1.166-.363,3.076,3.076,0,0,0-1.011.171,2.563,2.563,0,0,0-.836.456l-.441-.792a3.209,3.209,0,0,1,1.078-.556,4.523,4.523,0,0,1,1.331-.192A2.638,2.638,0,0,1,234.077,33.943Zm-1.051,4.273a1.542,1.542,0,0,0,.639-.764v-.814h-1.629q-1.342,0-1.342.9a.818.818,0,0,0,.341.693,1.557,1.557,0,0,0,.946.253A1.956,1.956,0,0,0,233.026,38.216Zm6.931.677a1.576,1.576,0,0,1-.572.3,2.384,2.384,0,0,1-.705.1,1.873,1.873,0,0,1-1.364-.473,1.807,1.807,0,0,1-.483-1.353v-3.2h-.99V33.4h.99V32.128h1.055V33.4h1.672v.869h-1.672V37.43a1.028,1.028,0,0,0,.237.726.882.882,0,0,0,.677.253,1.277,1.277,0,0,0,.825-.275Zm1.292-6.809a.649.649,0,0,1-.2-.484.667.667,0,0,1,.2-.49.694.694,0,0,1,.511-.2.711.711,0,0,1,.511.193.629.629,0,0,1,.2.478.681.681,0,0,1-.2.5.694.694,0,0,1-.511.2A.7.7,0,0,1,241.249,32.084Zm-.017,1.32h1.056v5.83h-1.056Zm4,5.511a2.792,2.792,0,0,1-1.083-1.062,3.207,3.207,0,0,1,0-3.069,2.75,2.75,0,0,1,1.083-1.056,3.214,3.214,0,0,1,1.563-.379,3.178,3.178,0,0,1,1.556.379,2.763,2.763,0,0,1,1.078,1.056,3.207,3.207,0,0,1,0,3.069,2.806,2.806,0,0,1-1.078,1.062,3.128,3.128,0,0,1-1.556.385A3.163,3.163,0,0,1,245.236,38.915Zm2.569-.8a1.827,1.827,0,0,0,.7-.725,2.4,2.4,0,0,0,0-2.145,1.791,1.791,0,0,0-.7-.721,2.129,2.129,0,0,0-2.013,0,1.823,1.823,0,0,0-.7.721,2.358,2.358,0,0,0,0,2.145,1.86,1.86,0,0,0,.7.725,2.085,2.085,0,0,0,2.013,0Zm8.36-4.125a2.537,2.537,0,0,1,.654,1.887v3.355h-1.057V36a1.79,1.79,0,0,0-.406-1.276,1.53,1.53,0,0,0-1.166-.429,1.819,1.819,0,0,0-1.353.5,1.958,1.958,0,0,0-.5,1.436v3h-1.056V33.4H252.3v.88a2.045,2.045,0,0,1,.864-.693,3.017,3.017,0,0,1,1.237-.242A2.412,2.412,0,0,1,256.165,33.992Zm11.071-2.92v8.162h-1.012V38.31a2.291,2.291,0,0,1-.891.737,2.757,2.757,0,0,1-1.188.253,3.069,3.069,0,0,1-1.518-.374,2.673,2.673,0,0,1-1.05-1.051,3.365,3.365,0,0,1,0-3.107,2.684,2.684,0,0,1,1.05-1.045,3.069,3.069,0,0,1,1.518-.374,2.812,2.812,0,0,1,1.156.236,2.253,2.253,0,0,1,.879.7V31.072Zm-2,7.045a1.813,1.813,0,0,0,.7-.725,2.4,2.4,0,0,0,0-2.145,1.778,1.778,0,0,0-.7-.721,2.119,2.119,0,0,0-2.008,0,1.829,1.829,0,0,0-.7.721,2.358,2.358,0,0,0,0,2.145,1.867,1.867,0,0,0,.7.725,2.075,2.075,0,0,0,2.008,0Zm9.251-1.446h-4.73a1.832,1.832,0,0,0,.676,1.237,2.208,2.208,0,0,0,1.436.468,2.168,2.168,0,0,0,1.684-.7l.583.682a2.569,2.569,0,0,1-.986.7,3.709,3.709,0,0,1-2.953-.138,2.7,2.7,0,0,1-1.105-1.061,3.038,3.038,0,0,1-.391-1.54,3.091,3.091,0,0,1,.38-1.529,2.709,2.709,0,0,1,1.045-1.062,2.984,2.984,0,0,1,1.5-.379,2.931,2.931,0,0,1,1.491.379,2.666,2.666,0,0,1,1.022,1.062,3.219,3.219,0,0,1,.369,1.562A2.93,2.93,0,0,1,274.485,36.671ZM270.354,34.7a1.858,1.858,0,0,0-.6,1.21h3.74a1.88,1.88,0,0,0-.6-1.2,1.97,1.97,0,0,0-2.541-.005Zm5.913,4.4a3.028,3.028,0,0,1-1.034-.489l.441-.836a3.16,3.16,0,0,0,.934.44,3.849,3.849,0,0,0,1.111.165q1.386,0,1.386-.792a.515.515,0,0,0-.186-.418,1.189,1.189,0,0,0-.468-.226q-.28-.071-.8-.159a7.816,7.816,0,0,1-1.149-.253,1.775,1.775,0,0,1-.765-.484,1.349,1.349,0,0,1-.318-.957,1.493,1.493,0,0,1,.66-1.271,2.952,2.952,0,0,1,1.77-.478,4.839,4.839,0,0,1,1.166.143,3.129,3.129,0,0,1,.957.385l-.451.836a3.028,3.028,0,0,0-1.682-.462,1.946,1.946,0,0,0-1.024.22.665.665,0,0,0-.351.583.552.552,0,0,0,.2.451,1.248,1.248,0,0,0,.489.242c.194.051.468.11.819.176a9.076,9.076,0,0,1,1.139.258,1.7,1.7,0,0,1,.742.468,1.3,1.3,0,0,1,.309.924,1.456,1.456,0,0,1-.677,1.259,3.192,3.192,0,0,1-1.843.468A4.87,4.87,0,0,1,276.267,39.107Zm13.75-5.7v5.038a3.013,3.013,0,0,1-.758,2.26,3.149,3.149,0,0,1-2.267.732,5.422,5.422,0,0,1-1.572-.226,3.12,3.12,0,0,1-1.211-.643l.507-.814a2.988,2.988,0,0,0,1.005.555,3.821,3.821,0,0,0,1.238.2,2.073,2.073,0,0,0,1.512-.484,1.989,1.989,0,0,0,.491-1.474V38.09a2.348,2.348,0,0,1-.919.677,3.07,3.07,0,0,1-1.183.225,3.182,3.182,0,0,1-1.513-.358,2.658,2.658,0,0,1-1.061-1,2.993,2.993,0,0,1,0-2.937,2.63,2.63,0,0,1,1.061-.995,3.226,3.226,0,0,1,1.513-.352,3.1,3.1,0,0,1,1.227.242,2.273,2.273,0,0,1,.929.715v-.9Zm-2.007,4.422a1.784,1.784,0,0,0,.714-.677,1.878,1.878,0,0,0,.259-.984,1.785,1.785,0,0,0-.56-1.37,2.267,2.267,0,0,0-2.894,0,1.785,1.785,0,0,0-.56,1.37,1.886,1.886,0,0,0,.257.984,1.789,1.789,0,0,0,.716.677,2.33,2.33,0,0,0,2.068,0Zm9.267-1.155h-4.73a1.832,1.832,0,0,0,.676,1.237,2.208,2.208,0,0,0,1.436.468,2.168,2.168,0,0,0,1.684-.7l.583.682a2.568,2.568,0,0,1-.986.7,3.709,3.709,0,0,1-2.953-.138,2.7,2.7,0,0,1-1.105-1.061,3.038,3.038,0,0,1-.391-1.54,3.091,3.091,0,0,1,.38-1.529,2.709,2.709,0,0,1,1.045-1.062,2.984,2.984,0,0,1,1.5-.379,2.931,2.931,0,0,1,1.491.379,2.666,2.666,0,0,1,1.022,1.062,3.219,3.219,0,0,1,.369,1.562A2.937,2.937,0,0,1,297.277,36.671ZM293.146,34.7a1.858,1.858,0,0,0-.6,1.21h3.74a1.88,1.88,0,0,0-.6-1.2,1.97,1.97,0,0,0-2.541-.005Zm10.494-.71a2.533,2.533,0,0,1,.655,1.887v3.355h-1.057V36a1.8,1.8,0,0,0-.406-1.276,1.532,1.532,0,0,0-1.166-.429,1.822,1.822,0,0,0-1.354.5,1.958,1.958,0,0,0-.5,1.436v3h-1.056V33.4h1.012v.88a2.051,2.051,0,0,1,.864-.693,3.025,3.025,0,0,1,1.238-.242A2.408,2.408,0,0,1,303.64,33.992Zm2.91,5.115a3.025,3.025,0,0,1-1.035-.489l.441-.836a3.172,3.172,0,0,0,.934.44,3.861,3.861,0,0,0,1.112.165q1.386,0,1.385-.792a.514.514,0,0,0-.186-.418,1.182,1.182,0,0,0-.468-.226c-.186-.047-.453-.1-.8-.159a7.847,7.847,0,0,1-1.149-.253,1.775,1.775,0,0,1-.765-.484,1.349,1.349,0,0,1-.318-.957,1.5,1.5,0,0,1,.66-1.271,2.953,2.953,0,0,1,1.771-.478,4.851,4.851,0,0,1,1.166.143,3.139,3.139,0,0,1,.957.385l-.452.836a3.028,3.028,0,0,0-1.682-.462,1.95,1.95,0,0,0-1.024.22.665.665,0,0,0-.351.583.552.552,0,0,0,.2.451,1.247,1.247,0,0,0,.489.242q.293.076.82.176a9.1,9.1,0,0,1,1.138.258,1.7,1.7,0,0,1,.742.468,1.3,1.3,0,0,1,.309.924,1.454,1.454,0,0,1-.677,1.259,3.191,3.191,0,0,1-1.842.468A4.86,4.86,0,0,1,306.55,39.107ZM203.415,45.072v8.162H202.4V52.31a2.277,2.277,0,0,1-.891.737,2.749,2.749,0,0,1-1.187.253,3.073,3.073,0,0,1-1.519-.374,2.686,2.686,0,0,1-1.05-1.051,3.373,3.373,0,0,1,0-3.107,2.7,2.7,0,0,1,1.05-1.045,3.073,3.073,0,0,1,1.519-.374,2.8,2.8,0,0,1,1.154.236,2.235,2.235,0,0,1,.88.7V45.072Zm-2,7.045a1.813,1.813,0,0,0,.7-.725,2.4,2.4,0,0,0,0-2.145,1.778,1.778,0,0,0-.7-.721,2.119,2.119,0,0,0-2.008,0,1.83,1.83,0,0,0-.7.721,2.35,2.35,0,0,0,0,2.145,1.867,1.867,0,0,0,.7.725,2.075,2.075,0,0,0,2.008,0Zm4.779-6.9a.745.745,0,0,1,.2.534,1.608,1.608,0,0,1-.033.325,3.4,3.4,0,0,1-.144.456l-.527,1.54H205l.407-1.639a.686.686,0,0,1-.336-.259.788.788,0,0,1,.083-.962.715.715,0,0,1,.527-.209A.676.676,0,0,1,206.192,45.22Zm5.588,2.723a2.293,2.293,0,0,1,.644,1.771v3.52h-1v-.77a1.673,1.673,0,0,1-.754.621,2.873,2.873,0,0,1-1.16.215,2.429,2.429,0,0,1-1.568-.473,1.625,1.625,0,0,1-.027-2.481,2.768,2.768,0,0,1,1.781-.467h1.673V49.67a1.346,1.346,0,0,0-.4-1.045,1.668,1.668,0,0,0-1.166-.363,3.076,3.076,0,0,0-1.011.171,2.574,2.574,0,0,0-.836.456l-.441-.792a3.209,3.209,0,0,1,1.078-.556,4.525,4.525,0,0,1,1.332-.192A2.637,2.637,0,0,1,211.78,47.943Zm-1.051,4.273a1.542,1.542,0,0,0,.639-.764v-.814h-1.629q-1.343,0-1.342.9a.818.818,0,0,0,.341.693,1.559,1.559,0,0,0,.946.253A1.956,1.956,0,0,0,210.729,52.216ZM215.57,46.9V47.4h1.693v.869h-1.671v4.961h-1.056V48.273h-.99V47.4h.99v-.517a1.855,1.855,0,0,1,.506-1.375,1.919,1.919,0,0,1,1.419-.506,2.387,2.387,0,0,1,.66.088,1.6,1.6,0,0,1,.527.253l-.318.8a1.319,1.319,0,0,0-.815-.275Q215.57,45.875,215.57,46.9Zm3.883,0V47.4h1.693v.869h-1.672v4.961h-1.055V48.273h-.991V47.4h.991v-.517a1.855,1.855,0,0,1,.506-1.375,1.917,1.917,0,0,1,1.419-.506,2.387,2.387,0,0,1,.66.088,1.6,1.6,0,0,1,.527.253l-.318.8a1.321,1.321,0,0,0-.815-.275Q219.451,45.875,219.453,46.9Zm6.561,1.045a2.293,2.293,0,0,1,.644,1.771v3.52h-1v-.77a1.673,1.673,0,0,1-.754.621,2.873,2.873,0,0,1-1.16.215,2.426,2.426,0,0,1-1.567-.473,1.516,1.516,0,0,1-.589-1.243,1.533,1.533,0,0,1,.561-1.238,2.768,2.768,0,0,1,1.781-.467H225.6V49.67a1.349,1.349,0,0,0-.4-1.045,1.671,1.671,0,0,0-1.166-.363,3.077,3.077,0,0,0-1.012.171,2.584,2.584,0,0,0-.836.456l-.44-.792a3.2,3.2,0,0,1,1.078-.556,4.518,4.518,0,0,1,1.331-.192A2.633,2.633,0,0,1,226.014,47.943Zm-1.05,4.273a1.54,1.54,0,0,0,.638-.764v-.814h-1.629q-1.341,0-1.341.9a.819.819,0,0,0,.34.693,1.56,1.56,0,0,0,.947.253A1.959,1.959,0,0,0,224.964,52.216Zm3.668-6.132a.65.65,0,0,1-.2-.484.668.668,0,0,1,.2-.49.693.693,0,0,1,.511-.2.712.712,0,0,1,.511.193.629.629,0,0,1,.2.478.681.681,0,0,1-.2.5.751.751,0,0,1-1.022.005Zm-.017,1.32h1.056v5.83h-1.056Zm4.895.209a2.957,2.957,0,0,1,1.309-.264v1.023a2.138,2.138,0,0,0-.242-.011,1.773,1.773,0,0,0-1.347.512,2.019,2.019,0,0,0-.49,1.457v2.9h-1.056V47.4H232.7v.979A1.809,1.809,0,0,1,233.51,47.613Zm7.8,3.058h-4.73a1.83,1.83,0,0,0,.677,1.237,2.2,2.2,0,0,0,1.435.468,2.168,2.168,0,0,0,1.684-.7l.583.682a2.568,2.568,0,0,1-.986.7,3.709,3.709,0,0,1-2.953-.138,2.71,2.71,0,0,1-1.1-1.061,3.038,3.038,0,0,1-.391-1.54,3.091,3.091,0,0,1,.38-1.529,2.715,2.715,0,0,1,1.045-1.062,2.984,2.984,0,0,1,1.5-.379,2.926,2.926,0,0,1,1.491.379,2.669,2.669,0,0,1,1.023,1.062,3.23,3.23,0,0,1,.368,1.562A2.933,2.933,0,0,1,241.309,50.671ZM237.178,48.7a1.863,1.863,0,0,0-.6,1.21h3.74a1.88,1.88,0,0,0-.6-1.2,1.97,1.97,0,0,0-2.541-.005Zm5.914,4.4a3.025,3.025,0,0,1-1.035-.489l.441-.836a3.172,3.172,0,0,0,.934.44,3.861,3.861,0,0,0,1.112.165q1.386,0,1.385-.792a.515.515,0,0,0-.186-.418,1.182,1.182,0,0,0-.468-.226c-.186-.047-.453-.1-.8-.159a7.847,7.847,0,0,1-1.149-.253,1.775,1.775,0,0,1-.765-.484,1.349,1.349,0,0,1-.318-.957,1.5,1.5,0,0,1,.66-1.271,2.953,2.953,0,0,1,1.771-.478,4.851,4.851,0,0,1,1.166.143,3.139,3.139,0,0,1,.957.385l-.452.836a3.028,3.028,0,0,0-1.682-.462,1.95,1.95,0,0,0-1.024.22.665.665,0,0,0-.351.583.552.552,0,0,0,.2.451,1.248,1.248,0,0,0,.489.242q.292.076.82.176a9.1,9.1,0,0,1,1.138.258,1.7,1.7,0,0,1,.742.468,1.3,1.3,0,0,1,.309.924,1.456,1.456,0,0,1-.677,1.259,3.191,3.191,0,0,1-1.842.468A4.86,4.86,0,0,1,243.092,53.107Zm9.361-6.209V47.4h1.693v.869h-1.672v4.961h-1.055V48.273h-.991V47.4h.991v-.517a1.855,1.855,0,0,1,.506-1.375,1.917,1.917,0,0,1,1.419-.506,2.387,2.387,0,0,1,.66.088,1.6,1.6,0,0,1,.527.253l-.318.8a1.321,1.321,0,0,0-.815-.275Q252.451,45.875,252.453,46.9Zm5.4.715a2.957,2.957,0,0,1,1.309-.264v1.023a2.137,2.137,0,0,0-.242-.011,1.772,1.772,0,0,0-1.347.512,2.019,2.019,0,0,0-.49,1.457v2.9h-1.056V47.4h1.012v.979A1.8,1.8,0,0,1,257.853,47.613Zm6.573.33a2.3,2.3,0,0,1,.643,1.771v3.52h-1v-.77a1.673,1.673,0,0,1-.754.621,2.873,2.873,0,0,1-1.16.215,2.426,2.426,0,0,1-1.567-.473A1.516,1.516,0,0,1,260,51.584a1.533,1.533,0,0,1,.561-1.238,2.769,2.769,0,0,1,1.782-.467h1.672V49.67a1.346,1.346,0,0,0-.4-1.045,1.669,1.669,0,0,0-1.166-.363,3.077,3.077,0,0,0-1.012.171,2.584,2.584,0,0,0-.836.456l-.44-.792a3.209,3.209,0,0,1,1.078-.556,4.518,4.518,0,0,1,1.331-.192A2.638,2.638,0,0,1,264.426,47.943Zm-1.051,4.273a1.535,1.535,0,0,0,.638-.764v-.814h-1.628q-1.343,0-1.342.9a.818.818,0,0,0,.341.693,1.557,1.557,0,0,0,.946.253A1.959,1.959,0,0,0,263.375,52.216Zm8.531-4.224a2.533,2.533,0,0,1,.654,1.887v3.355H271.5V50a1.791,1.791,0,0,0-.407-1.276,1.53,1.53,0,0,0-1.166-.429,1.819,1.819,0,0,0-1.353.5,1.958,1.958,0,0,0-.495,1.436v3h-1.056V47.4h1.012v.88a2.051,2.051,0,0,1,.864-.693,3.017,3.017,0,0,1,1.237-.242A2.41,2.41,0,0,1,271.906,47.992Zm3.6,4.923a2.821,2.821,0,0,1-1.094-1.062,3.164,3.164,0,0,1,0-3.069,2.779,2.779,0,0,1,1.094-1.056,3.289,3.289,0,0,1,1.59-.379,3.044,3.044,0,0,1,1.413.319,2.271,2.271,0,0,1,.963.924l-.8.517a1.791,1.791,0,0,0-.683-.627,1.944,1.944,0,0,0-.9-.209,2.081,2.081,0,0,0-1.029.253,1.81,1.81,0,0,0-.715.721,2.177,2.177,0,0,0-.258,1.072,2.2,2.2,0,0,0,.258,1.083,1.81,1.81,0,0,0,.715.721,2.092,2.092,0,0,0,1.029.253,1.944,1.944,0,0,0,.9-.209,1.791,1.791,0,0,0,.683-.627l.8.506a2.315,2.315,0,0,1-.963.93,3.009,3.009,0,0,1-1.413.324A3.237,3.237,0,0,1,275.5,52.915Zm6.176,0a2.8,2.8,0,0,1-1.083-1.062,3.214,3.214,0,0,1,0-3.069,2.757,2.757,0,0,1,1.083-1.056,3.216,3.216,0,0,1,1.563-.379,3.182,3.182,0,0,1,1.557.379,2.77,2.77,0,0,1,1.078,1.056,3.214,3.214,0,0,1,0,3.069,2.813,2.813,0,0,1-1.078,1.062,3.132,3.132,0,0,1-1.557.385A3.165,3.165,0,0,1,281.678,52.915Zm2.57-.8a1.825,1.825,0,0,0,.7-.725,2.4,2.4,0,0,0,0-2.145,1.789,1.789,0,0,0-.7-.721,2.13,2.13,0,0,0-2.014,0,1.83,1.83,0,0,0-.7.721,2.358,2.358,0,0,0,0,2.145,1.867,1.867,0,0,0,.7.725,2.087,2.087,0,0,0,2.014,0Zm8.09-4.394a2.682,2.682,0,0,1,1.049,1.045,3.365,3.365,0,0,1,0,3.107,2.671,2.671,0,0,1-1.049,1.051,3.073,3.073,0,0,1-1.519.374,2.7,2.7,0,0,1-1.149-.242,2.394,2.394,0,0,1-.886-.7v3.014h-1.056V47.4h1.012v.924a2.241,2.241,0,0,1,.892-.732,2.806,2.806,0,0,1,1.187-.247A3.073,3.073,0,0,1,292.338,47.723Zm-.6,4.394a1.867,1.867,0,0,0,.7-.725,2.358,2.358,0,0,0,0-2.145,1.829,1.829,0,0,0-.7-.721,2,2,0,0,0-1.007-.253,1.95,1.95,0,0,0-.995.258,1.876,1.876,0,0,0-.7.721,2.14,2.14,0,0,0-.259,1.067,2.218,2.218,0,0,0,.253,1.073,1.813,1.813,0,0,0,.7.725,2.075,2.075,0,0,0,2.008,0Zm8.371-4.125a2.533,2.533,0,0,1,.654,1.887v3.355h-1.056V50a1.8,1.8,0,0,0-.406-1.276,1.533,1.533,0,0,0-1.166-.429,1.82,1.82,0,0,0-1.354.5,1.958,1.958,0,0,0-.495,1.436v3H295.23V45.072h1.056v3.157a2.183,2.183,0,0,1,.864-.649,2.974,2.974,0,0,1,1.194-.231A2.408,2.408,0,0,1,300.109,47.992Zm3.58,4.923a2.792,2.792,0,0,1-1.083-1.062,3.214,3.214,0,0,1,0-3.069,2.75,2.75,0,0,1,1.083-1.056,3.216,3.216,0,0,1,1.563-.379,3.178,3.178,0,0,1,1.556.379,2.763,2.763,0,0,1,1.078,1.056,3.206,3.206,0,0,1,0,3.069,2.806,2.806,0,0,1-1.078,1.062,3.128,3.128,0,0,1-1.556.385A3.165,3.165,0,0,1,303.689,52.915Zm2.57-.8a1.832,1.832,0,0,0,.7-.725,2.4,2.4,0,0,0,0-2.145,1.8,1.8,0,0,0-.7-.721,2.131,2.131,0,0,0-2.014,0,1.83,1.83,0,0,0-.7.721,2.358,2.358,0,0,0,0,2.145,1.867,1.867,0,0,0,.7.725,2.087,2.087,0,0,0,2.014,0Zm8.359-4.125a2.537,2.537,0,0,1,.654,1.887v3.355h-1.056V50a1.791,1.791,0,0,0-.407-1.276,1.53,1.53,0,0,0-1.166-.429,1.819,1.819,0,0,0-1.353.5,1.958,1.958,0,0,0-.495,1.436v3h-1.056V47.4h1.012v.88a2.051,2.051,0,0,1,.864-.693,3.017,3.017,0,0,1,1.237-.242A2.41,2.41,0,0,1,314.618,47.992Zm7.892,2.679h-4.73a1.829,1.829,0,0,0,.677,1.237,2.2,2.2,0,0,0,1.435.468,2.166,2.166,0,0,0,1.684-.7l.583.682a2.572,2.572,0,0,1-.985.7,3.711,3.711,0,0,1-2.954-.138,2.71,2.71,0,0,1-1.105-1.061,3.038,3.038,0,0,1-.391-1.54,3.091,3.091,0,0,1,.38-1.529,2.715,2.715,0,0,1,1.045-1.062,2.989,2.989,0,0,1,1.5-.379,2.926,2.926,0,0,1,1.491.379,2.669,2.669,0,0,1,1.023,1.062,3.23,3.23,0,0,1,.368,1.562A2.937,2.937,0,0,1,322.51,50.671ZM318.38,48.7a1.864,1.864,0,0,0-.6,1.21h3.74a1.879,1.879,0,0,0-.6-1.2,1.97,1.97,0,0,0-2.541-.005Zm5.912,4.4a3.019,3.019,0,0,1-1.034-.489l.44-.836a3.166,3.166,0,0,0,.935.44,3.849,3.849,0,0,0,1.111.165q1.386,0,1.386-.792a.515.515,0,0,0-.187-.418,1.182,1.182,0,0,0-.468-.226c-.186-.047-.453-.1-.8-.159a7.847,7.847,0,0,1-1.149-.253,1.775,1.775,0,0,1-.765-.484,1.353,1.353,0,0,1-.318-.957,1.5,1.5,0,0,1,.66-1.271,2.955,2.955,0,0,1,1.771-.478,4.851,4.851,0,0,1,1.166.143,3.139,3.139,0,0,1,.957.385l-.451.836a3.034,3.034,0,0,0-1.683-.462,1.944,1.944,0,0,0-1.023.22.664.664,0,0,0-.352.583.552.552,0,0,0,.2.451,1.248,1.248,0,0,0,.489.242q.293.076.82.176a9.056,9.056,0,0,1,1.138.258,1.7,1.7,0,0,1,.743.468,1.3,1.3,0,0,1,.308.924,1.455,1.455,0,0,1-.676,1.259,3.2,3.2,0,0,1-1.843.468A4.86,4.86,0,0,1,324.292,53.107ZM203.415,59.072v8.162H202.4V66.31a2.277,2.277,0,0,1-.891.737,2.749,2.749,0,0,1-1.187.253,3.073,3.073,0,0,1-1.519-.374,2.68,2.68,0,0,1-1.05-1.051,3.373,3.373,0,0,1,0-3.107,2.7,2.7,0,0,1,1.05-1.045,3.073,3.073,0,0,1,1.519-.374,2.8,2.8,0,0,1,1.154.236,2.244,2.244,0,0,1,.88.7V59.072Zm-2,7.046a1.809,1.809,0,0,0,.7-.726,2.4,2.4,0,0,0,0-2.145,1.778,1.778,0,0,0-.7-.721,2.119,2.119,0,0,0-2.008,0,1.83,1.83,0,0,0-.7.721,2.35,2.35,0,0,0,0,2.145,1.863,1.863,0,0,0,.7.726,2.082,2.082,0,0,0,2.008,0Zm9.251-1.447h-4.731a1.838,1.838,0,0,0,.677,1.238,2.211,2.211,0,0,0,1.436.467,2.166,2.166,0,0,0,1.683-.7l.583.682a2.544,2.544,0,0,1-.985.7,3.709,3.709,0,0,1-2.953-.138,2.7,2.7,0,0,1-1.106-1.061,3.045,3.045,0,0,1-.39-1.54,3.091,3.091,0,0,1,.38-1.529,2.7,2.7,0,0,1,1.044-1.061,2.98,2.98,0,0,1,1.5-.38,2.923,2.923,0,0,1,1.492.38,2.67,2.67,0,0,1,1.022,1.061,3.23,3.23,0,0,1,.368,1.562A3.147,3.147,0,0,1,210.664,64.671ZM206.533,62.7a1.866,1.866,0,0,0-.6,1.211h3.741a1.88,1.88,0,0,0-.6-1.206,1.97,1.97,0,0,0-2.541-.005Zm8.575-3.63h1.056v8.162h-1.056Zm3.844.148a.746.746,0,0,1,.2.534,1.682,1.682,0,0,1-.033.325,3.72,3.72,0,0,1-.144.456l-.527,1.54h-.693l.407-1.639a.686.686,0,0,1-.336-.259.788.788,0,0,1,.083-.962.714.714,0,0,1,.527-.209A.679.679,0,0,1,218.952,59.22Zm3.251,7.591a3.783,3.783,0,0,1-1.469-1.414,4.066,4.066,0,0,1,0-4.025,3.779,3.779,0,0,1,1.469-1.415,4.55,4.55,0,0,1,4.19,0,3.749,3.749,0,0,1,1.463,1.409,4.116,4.116,0,0,1,0,4.037,3.76,3.76,0,0,1-1.463,1.408,4.55,4.55,0,0,1-4.19,0Zm3.624-.853a2.823,2.823,0,0,0,1.067-1.061,3.121,3.121,0,0,0,0-3.025,2.819,2.819,0,0,0-1.067-1.062,3.023,3.023,0,0,0-1.524-.385,3.082,3.082,0,0,0-1.534.385,2.792,2.792,0,0,0-1.078,1.062,3.128,3.128,0,0,0,0,3.025,2.8,2.8,0,0,0,1.078,1.061,3.082,3.082,0,0,0,1.534.385A3.023,3.023,0,0,0,225.827,65.958Zm8.966-3.965a2.533,2.533,0,0,1,.654,1.886v3.355H234.39V64a1.79,1.79,0,0,0-.406-1.276,1.53,1.53,0,0,0-1.166-.429,1.819,1.819,0,0,0-1.353.5,1.958,1.958,0,0,0-.5,1.436v3h-1.055V61.4h1.012v.88a2.053,2.053,0,0,1,.864-.693,3.017,3.017,0,0,1,1.237-.242A2.412,2.412,0,0,1,234.793,61.993Zm5.889,4.9a1.576,1.576,0,0,1-.572.3,2.409,2.409,0,0,1-.7.1,1.871,1.871,0,0,1-1.364-.473,1.8,1.8,0,0,1-.484-1.353v-3.2h-.99V61.4h.99V60.128h1.056V61.4h1.672v.869h-1.672V65.43a1.025,1.025,0,0,0,.236.726.883.883,0,0,0,.677.253,1.27,1.27,0,0,0,.825-.275Zm5.253-4.95a2.293,2.293,0,0,1,.644,1.771v3.52h-1v-.77a1.661,1.661,0,0,1-.754.621,2.856,2.856,0,0,1-1.16.215,2.429,2.429,0,0,1-1.568-.473,1.518,1.518,0,0,1-.588-1.243,1.534,1.534,0,0,1,.561-1.238,2.768,2.768,0,0,1,1.781-.467h1.673V63.67a1.349,1.349,0,0,0-.4-1.045,1.671,1.671,0,0,0-1.166-.363,3.077,3.077,0,0,0-1.012.171,2.6,2.6,0,0,0-.836.456l-.44-.792a3.2,3.2,0,0,1,1.078-.556,4.552,4.552,0,0,1,1.331-.192A2.635,2.635,0,0,1,245.935,61.943Zm-1.05,4.273a1.545,1.545,0,0,0,.638-.764v-.814h-1.629q-1.341,0-1.342.9a.819.819,0,0,0,.341.693,1.56,1.56,0,0,0,.947.253A1.959,1.959,0,0,0,244.885,66.216Zm5.477-4.6a2.954,2.954,0,0,1,1.309-.264v1.024a1.9,1.9,0,0,0-.243-.012,1.775,1.775,0,0,0-1.346.512,2.021,2.021,0,0,0-.49,1.458v2.9h-1.056V61.4h1.012v.979A1.809,1.809,0,0,1,250.362,61.613Zm2.624-1.529a.649.649,0,0,1-.2-.484.666.666,0,0,1,.2-.489.693.693,0,0,1,.512-.2.712.712,0,0,1,.511.193.633.633,0,0,1,.2.479.684.684,0,0,1-.2.5.7.7,0,0,1-.511.2A.7.7,0,0,1,252.986,60.084Zm-.017,1.32h1.056v5.83h-1.056Zm4,5.511a2.789,2.789,0,0,1-1.083-1.061,3.214,3.214,0,0,1,0-3.069,2.743,2.743,0,0,1,1.083-1.056,3.206,3.206,0,0,1,1.563-.38,3.172,3.172,0,0,1,1.557.38,2.764,2.764,0,0,1,1.078,1.056,3.214,3.214,0,0,1,0,3.069,2.811,2.811,0,0,1-1.078,1.061,3.132,3.132,0,0,1-1.557.385A3.165,3.165,0,0,1,256.972,66.915Zm2.57-.8a1.821,1.821,0,0,0,.7-.726,2.4,2.4,0,0,0,0-2.145,1.789,1.789,0,0,0-.7-.721,2.13,2.13,0,0,0-2.014,0,1.829,1.829,0,0,0-.7.721,2.358,2.358,0,0,0,0,2.145,1.863,1.863,0,0,0,.7.726,2.094,2.094,0,0,0,2.014,0Z" fill="#1a1818"/>
      <path id="bleu_fonce" d="M55.051,72l-5.337-5.742c.038-.034.078-.062.114-.1a13.051,13.051,0,0,0,1.007-18.067l5.75-5.343A20.894,20.894,0,0,1,55.163,71.9C55.126,71.935,55.088,71.966,55.051,72ZM68.795,53.444a4.275,4.275,0,1,0,2.829,5.342A4.275,4.275,0,0,0,68.795,53.444Z" fill="#00317a"/>
      <path id="jaune" d="M60.358,32.336l-2.305,7.493c-.047-.015-.092-.036-.14-.051a13.052,13.052,0,0,0-16.15,8.162l-7.5-2.307A20.9,20.9,0,0,1,60.217,32.289C60.265,32.3,60.311,32.321,60.358,32.336ZM43.864,24.19a4.275,4.275,0,1,0,2.829,5.343A4.275,4.275,0,0,0,43.864,24.19Z" fill="#eba62f"/>
      <path id="bleu_clair" d="M23.814,47.646l7.641-1.75c.011.049.015.1.026.147a13.053,13.053,0,0,0,15.144,9.905L48.377,63.6A20.894,20.894,0,0,1,23.843,47.792C23.832,47.744,23.824,47.695,23.814,47.646Zm6.265,13a4.275,4.275,0,1,0,2.829,5.342A4.273,4.273,0,0,0,30.079,60.642Z" fill="#1e77b8"/>
    </g>
  </g>
</svg>
